<?xml version="1.0" encoding="UTF-8"?>
<svg id="Layer_2" xmlns="http://www.w3.org/2000/svg" version="1.1" viewBox="0 0 287.6 274.3">
  <!-- Generator: Adobe Illustrator 29.6.0, SVG Export Plug-In . SVG Version: 2.1.1 Build 207)  -->
  <defs>
    <style>
      .st0 {
        fill: #ea008a;
      }
    </style>
  </defs>
  <polygon points="286.2 270.5 251.8 271.3 216.2 273.8 180.6 272.7 145.1 271.2 109.5 270.6 74 271.7 38.4 274.3 3.3 271.1 0 233.1 4.6 194.6 2.3 156.1 5.3 117.7 4.3 79.2 .9 40.7 2.7 2.1 38.4 4.9 73.9 3.4 109.5 4.8 145.1 .6 180.6 3.5 216.2 0 251.8 1.8 285.9 3.5 285.3 40.7 286.4 79.2 287.6 117.6 286.3 156.1 285.4 194.6 287.1 233.1 286.2 270.5"/>
  <path class="st0" d="M120.8,69.7c1.9-8,3.2-15.3,5.1-23.3.8-3.2,1.6-6.5,3.4-9.1s5.2-4.6,8.4-3.9c3.9.8,6,4.8,7.8,8.3,4.9,9.8,10.4,19.2,16.4,28.2,1.8,2.7,4,5.6,7.1,6.5,4.9,1.5,9.6-2.2,13.4-5.6,9.6-8.7,19.2-17.5,28.8-26.2,1.3-1.2,2.6-2.4,4.2-3s3.6-.7,5,.4c1.5,1.2,1.9,3.2,2.1,5.1,1.1,13.1-5.5,25.6-7.6,38.5-.5,3.2-.6,6.9,1.8,9,1.5,1.3,3.7,1.7,5.7,1.4,2-.3,12.5-4.4,17.2-5.7,3.6-1,8.1-.5,10.1,2.7,1.9,3.2.4,7.2-1.4,10.5-7.9,14.9-38,51.1-42.9,55.7-4.9,4.6-9.5,11.3-7.1,17.6,1.7,4.5,6.4,7,10.1,10.1,3.7,3.1,6.7,8.6,4,12.5-1.9,2.8-5.8,3.4-9.2,3.7-16.5,1.5-32.9,2.9-49.4,4.4-3.8.3-8.8,1.8-8.8,5.7,0,1.6.9,3,1,4.5.2,3.8-4.3,5.7-7.9,6.7-28.6,7.3-57.7,12.9-87,16.7-2.1.3-4.4.5-6.2-.6-3.4-2.2-2.5-7.4-.4-10.9,2.1-3.4,21.8-42,27.6-58.5.6-1.6,1.2-3.5.5-5.1-.9-2.2-3.7-2.9-6-3.3-7-1.2-14.1-2.4-21.2-3.6-2.9-.5-6.2-1.2-7.6-3.8-1.3-2.3-.5-5.3,1.3-7.4,1.7-2,4.2-3.2,6.6-4.3,12.3-5.7,38-18.6,46.6-22.4,7.6-3.4,15.2-7.6,19.9-14.5,7.5-11,6.1-26.3,8.7-37h0Z"/>
</svg>