<svg width="1539" height="159" viewBox="0 0 1539 159" fill="none" xmlns="http://www.w3.org/2000/svg">
<g clip-path="url(#clip0_270_70)">
<path d="M165.5 156.78L145.617 157.273L125.051 158.693L104.479 158.055L83.9127 157.226L63.3408 156.855L42.7747 157.487L22.1971 159L1.93169 157.139L0 135.118L2.66041 112.813L1.35912 90.5077L3.05947 68.2025L2.50425 45.8973L0.543648 23.5863L1.55576 1.21148L22.1971 2.85771L42.7632 1.94765L63.3293 2.80554L83.9012 0.370981L104.473 1.99982L125.039 0L145.611 1.06077L165.373 2.0288L165.009 23.5805L165.616 45.8857L166.316 68.1909L165.57 90.4961L165.038 112.801L166.044 135.107L165.5 156.78Z" fill="black"/>
<path d="M69.8472 40.379C70.9518 35.7418 71.6805 31.4813 72.7794 26.844C73.2189 25.0007 73.6758 23.1053 74.7747 21.5634C75.8736 20.0215 77.7705 18.8969 79.6213 19.2795C81.8479 19.7432 83.1029 22.0503 84.1208 24.0907C86.9316 29.7481 90.1125 35.2201 93.6347 40.4602C94.6988 42.0427 95.9307 43.7005 97.7525 44.2512C100.569 45.0975 103.328 42.9643 105.497 40.9819C111.043 35.9157 116.589 30.8495 122.136 25.7891C122.882 25.1051 123.651 24.4095 124.588 24.0269C125.525 23.6443 126.676 23.6212 127.474 24.2414C128.33 24.908 128.573 26.0905 128.66 27.1745C129.273 34.7796 125.484 41.9847 124.241 49.5144C123.94 51.3462 123.9 53.5025 125.282 54.7314C126.155 55.5081 127.428 55.7052 128.584 55.5255C129.753 55.34 135.791 52.946 138.52 52.2156C140.602 51.6592 143.217 51.949 144.333 53.7981C145.443 55.6356 144.553 57.9948 143.546 59.8903C138.971 68.504 121.563 89.5282 118.729 92.2062C115.895 94.89 113.218 98.7795 114.6 102.426C115.589 105.034 118.296 106.477 120.435 108.263C122.575 110.054 124.322 113.219 122.737 115.52C121.615 117.149 119.389 117.468 117.416 117.647C107.891 118.494 98.3656 119.346 88.8344 120.192C86.6193 120.389 83.7622 121.247 83.768 123.473C83.768 124.377 84.3059 125.206 84.3406 126.105C84.4331 128.278 81.8653 129.432 79.7601 129.971C63.2077 134.226 46.3951 137.466 29.4495 139.669C28.2349 139.825 26.9105 139.953 25.881 139.298C23.9146 138.04 24.4236 134.979 25.6555 132.991C26.8874 131.003 38.2462 108.657 41.6295 99.1041C41.9649 98.1535 42.2946 97.0927 41.9013 96.1595C41.3635 94.8842 39.7903 94.4901 38.4312 94.2582C34.3539 93.5568 30.2765 92.8554 26.1933 92.1598C24.5219 91.87 22.6307 91.4353 21.8095 89.9513C21.0692 88.6123 21.5434 86.856 22.544 85.6909C23.5445 84.5315 24.9672 83.836 26.3553 83.1925C33.4748 79.9059 48.3441 72.4225 53.3295 70.2024C57.7192 68.249 62.132 65.8028 64.8329 61.8206C69.1647 55.4443 68.3666 46.5466 69.8356 40.379H69.8472Z" fill="#EA008A"/>
</g>
<path d="M1452.84 131V28.8946H1483.81L1497.42 63.0999C1502.53 76.7139 1507.64 96.9648 1509.85 109.728L1512.91 109.047C1510.87 92.7105 1509.17 67.6946 1509.17 52.549V28.8946H1531.12V131H1499.81L1485.85 90.6683C1482.45 80.1175 1477.85 62.7595 1474.62 48.635L1471.73 49.1455C1473.09 65.9929 1474.79 93.7315 1474.79 108.537V131H1452.84Z" fill="black"/>
<path d="M1344.95 49.3157V28.8946H1419.49V49.3157H1394.48V110.579H1419.49V131H1344.95V110.579H1369.97V49.3157H1344.95Z" fill="black"/>
<path d="M1233.67 131V28.8946H1258.34V72.6297H1268.72L1289.31 28.8946H1316.88V32.2981L1285.91 80.628L1317.56 127.596V131H1289.31L1269.57 93.221H1258.34V131H1233.67Z" fill="black"/>
<path d="M1126.29 131V28.8946H1167.98C1194.19 28.8946 1206.78 42.3385 1206.78 65.9929C1206.78 85.7333 1193.34 102.07 1168.84 102.07H1150.8V131H1126.29ZM1150.8 83.8613H1166.11C1179.56 83.8613 1183.81 77.3946 1183.81 66.1631C1183.81 54.9315 1179.73 48.4648 1165.94 48.4648H1150.8V83.8613Z" fill="black"/>
<path d="M1006.15 131L1033.55 28.8946H1072.52L1099.92 131H1073.71L1068.61 107.175H1036.62L1031.34 131H1006.15ZM1040.36 90.1578H1064.86L1062.14 77.9052C1059.93 68.035 1057.89 57.4841 1056.19 47.6139H1049.38C1047.34 57.4841 1045.29 67.8648 1043.25 77.9052L1040.36 90.1578Z" fill="black"/>
<path d="M904.056 131V28.8946H935.028L948.642 63.0999C953.747 76.7139 958.852 96.9648 961.065 109.728L964.128 109.047C962.086 92.7105 960.384 67.6946 960.384 52.549V28.8946H982.336V131H951.024L937.07 90.6683C933.666 80.1175 929.071 62.7595 925.838 48.635L922.945 49.1455C924.307 65.9929 926.008 93.7315 926.008 108.537V131H904.056Z" fill="black"/>
<path d="M709.898 32.2981V28.8946H736.956L755.506 83.0104H760.441L779.841 28.8946H805.707V32.2981L770.141 101.049V131H745.635V100.879L709.898 32.2981Z" fill="black"/>
<path d="M635.708 131V50.3367H605.417V28.8946H690.505V50.3367H660.214V131H635.708Z" fill="black"/>
<path d="M501.106 131V28.8946H541.438C565.773 28.8946 578.707 40.4665 578.707 63.6104C578.707 78.7561 572.921 88.7964 562.71 94.0719L583.301 127.596V131H555.052L538.545 98.6666H525.612V131H501.106ZM525.612 80.9683H539.056C550.628 80.9683 554.542 75.6929 554.542 64.4613C554.542 52.8894 550.117 48.1244 538.715 48.1244H525.612V80.9683Z" fill="black"/>
<path d="M391.179 49.3157V28.8946H465.716V49.3157H440.701V110.579H465.716V131H391.179V110.579H416.195V49.3157H391.179Z" fill="black"/>
<path d="M280.232 131V28.8946H318.181C348.302 28.8946 360.895 45.2315 360.895 78.7561C360.895 112.791 344.558 131 316.99 131H280.232ZM304.907 111.26H315.628C330.774 111.26 336.56 101.389 336.56 78.7561C336.56 55.6122 330.774 48.635 315.118 48.635H304.907V111.26Z" fill="black"/>
<defs>
<clipPath id="clip0_270_70">
<rect width="166.316" height="159" fill="white"/>
</clipPath>
</defs>
</svg>
