<?xml version="1.0" encoding="UTF-8"?>
<svg id="Layer_2" xmlns="http://www.w3.org/2000/svg" version="1.1" viewBox="0 0 287.6 274.3">
  <!-- Generator: Adobe Illustrator 29.6.0, SVG Export Plug-In . SVG Version: 2.1.1 Build 207)  -->
  <defs>
    <style>
      .st0 {
        fill: #fff;
      }
    </style>
  </defs>
  <path class="st0" d="M286.3,156.1l1.3-38.5-1.2-38.5-1-38.5.6-37.2-34.2-1.7-35.6-1.8-35.6,3.5-35.6-2.8-35.6,4.2-35.6-1.5-35.6,1.6L2.7,2.1.9,40.7l3.4,38.5,1,38.5-2.9,38.5,2.2,38.5L0,233.1l3.3,38,35,3.2,35.6-2.6,35.6-1.1,35.6.6,35.6,1.4,35.6,1.1,35.6-2.4,34.4-.9.9-37.4-1.7-38.5.9-38.5ZM248.2,103.3c-7.9,14.9-38,51.1-42.9,55.8-4.9,4.6-9.5,11.3-7.1,17.6,1.7,4.5,6.4,7,10.1,10.1,3.7,3.1,6.7,8.5,4,12.5-1.9,2.8-5.8,3.4-9.2,3.7-16.5,1.5-32.9,2.9-49.4,4.4-3.8.3-8.8,1.8-8.8,5.7,0,1.6.9,3,1,4.5.2,3.8-4.3,5.7-7.9,6.7-28.6,7.3-57.7,12.9-87,16.7-2.1.3-4.4.5-6.2-.6-3.4-2.2-2.5-7.5-.4-10.9s21.8-42,27.6-58.5c.6-1.6,1.1-3.5.5-5.1-.9-2.2-3.6-2.9-6-3.3-7-1.2-14.1-2.4-21.2-3.6-2.9-.5-6.2-1.2-7.6-3.8-1.3-2.3-.5-5.3,1.3-7.3,1.7-2,4.2-3.2,6.6-4.3,12.3-5.7,38-18.6,46.6-22.4,7.6-3.4,15.2-7.6,19.9-14.5,7.5-11,6.1-26.4,8.7-37h0c1.9-8,3.2-15.3,5.1-23.3.8-3.2,1.5-6.5,3.4-9.1,1.9-2.7,5.2-4.6,8.4-3.9,3.9.8,6,4.8,7.8,8.3,4.9,9.8,10.4,19.2,16.5,28.2,1.8,2.7,4,5.6,7.1,6.5,4.9,1.5,9.6-2.2,13.4-5.6,9.6-8.7,19.2-17.5,28.8-26.2,1.3-1.2,2.6-2.4,4.2-3,1.6-.7,3.6-.7,5,.4,1.5,1.2,1.9,3.2,2,5.1,1.1,13.1-5.5,25.5-7.6,38.5-.5,3.2-.6,6.9,1.8,9,1.5,1.3,3.7,1.7,5.7,1.4,2-.3,12.5-4.4,17.2-5.7,3.6-1,8.1-.5,10,2.7,1.9,3.2.4,7.2-1.4,10.5Z"/>
</svg>