<?xml version="1.0" encoding="UTF-8"?><svg id="Layer_1" xmlns="http://www.w3.org/2000/svg" viewBox="0 0 142.14 135.58"><defs><style>.cls-1{fill:#040405;}</style></defs><path class="cls-1" d="M141.5,77.16l.64-19.02-.6-19.02-.52-19.02.31-18.37-16.89-.83-17.58-.9-17.58,1.7-17.58-1.38-17.58,2.07-17.57-.73-17.58.78L1.33,1.03.46,20.11l1.68,19.02.47,19.02-1.45,19.02,1.11,19.02-2.27,19.02,1.65,18.78,17.32,1.59,17.58-1.29,17.58-.54,17.58.32,17.58.7,17.58.55,17.58-1.22,16.99-.41.46-18.48-.86-19.03.46-19.02ZM122.69,51.06c-3.91,7.35-18.79,25.28-21.22,27.56-2.42,2.29-4.71,5.61-3.52,8.72.84,2.22,3.15,3.45,4.98,4.98,1.83,1.52,3.33,4.22,1.97,6.18-.96,1.39-2.86,1.67-4.54,1.81-8.15.73-16.29,1.45-24.43,2.17-1.89.17-4.33.9-4.33,2.8,0,.77.46,1.48.49,2.25.08,1.85-2.12,2.83-3.91,3.29-14.15,3.63-28.52,6.4-43,8.27-1.04.14-2.17.25-3.05-.31-1.68-1.08-1.24-3.69-.19-5.38,1.05-1.7,10.76-20.75,13.65-28.9.29-.81.57-1.71.23-2.5-.46-1.09-1.8-1.43-2.96-1.63-3.49-.59-6.98-1.19-10.46-1.79-1.43-.24-3.05-.62-3.75-1.88-.63-1.15-.23-2.64.63-3.63.85-.99,2.07-1.59,3.26-2.13,6.08-2.81,18.79-9.19,23.05-11.08,3.75-1.67,7.52-3.75,9.83-7.15,3.7-5.43,3.02-13.02,4.27-18.28.95-3.96,1.57-7.59,2.51-11.54.38-1.57.77-3.19,1.71-4.5.94-1.32,2.56-2.28,4.14-1.95,1.91.4,2.98,2.36,3.85,4.1,2.4,4.83,5.11,9.49,8.13,13.96.91,1.35,1.96,2.77,3.52,3.23,2.4.72,4.76-1.1,6.62-2.79,4.74-4.32,9.47-8.63,14.21-12.95.64-.58,1.3-1.18,2.1-1.51.8-.32,1.78-.34,2.47.19.73.56.93,1.58,1.01,2.5.52,6.48-2.72,12.63-3.78,19.05-.26,1.56-.29,3.4.89,4.45.75.66,1.84.83,2.82.67,1-.15,6.16-2.2,8.5-2.82,1.78-.48,4.01-.23,4.97,1.35.95,1.56.19,3.58-.67,5.19Z"/></svg>