<?xml version="1.0" encoding="UTF-8"?>
<svg xmlns="http://www.w3.org/2000/svg" style="display:none;">
  <symbol id="icon-instagram" viewBox="0 0 24 24">
    <path d="M12,5.85c-3.41,0-6.15,2.75-6.15,6.15s2.75,6.15,6.15,6.15,6.15-2.75,6.15-6.15-2.75-6.15-6.15-6.15ZM12,16.01c-2.2,0-4-1.79-4-4s1.79-4,4-4,4,1.79,4,4-1.8,4-4,4h0ZM19.84,5.59c0,.8-.64,1.43-1.43,1.43s-1.43-.64-1.43-1.43.64-1.43,1.43-1.43,1.43.64,1.43,1.43ZM23.92,7.05c-.09-1.92-.53-3.62-1.94-5.03-1.4-1.4-3.11-1.84-5.03-1.94C14.97-.03,9.03-.03,7.05.08c-1.92.09-3.62.53-5.03,1.93S.18,5.12.08,7.04C-.03,9.02-.03,14.97.08,16.95c.09,1.92.53,3.62,1.94,5.03,1.41,1.4,3.11,1.84,5.03,1.94,1.98.11,7.92.11,9.9,0,1.92-.09,3.62-.53,5.03-1.94,1.4-1.4,1.84-3.11,1.94-5.03.11-1.98.11-7.91,0-9.89h0ZM21.36,19.08c-.42,1.05-1.23,1.86-2.28,2.28-1.58.63-5.33.48-7.07.48s-5.5.14-7.07-.48c-1.05-.42-1.86-1.23-2.28-2.28-.63-1.58-.48-5.33-.48-7.07s-.14-5.5.48-7.07c.42-1.05,1.23-1.86,2.28-2.28,1.58-.63,5.33-.48,7.07-.48s5.5-.14,7.07.48c1.05.42,1.86,1.23,2.28,2.28.63,1.58.48,5.33.48,7.07s.14,5.5-.48,7.07Z"/>
  </symbol>
  <symbol id="icon-linkedin" viewBox="0 0 24 24">
    <path d="M22.23,0H1.77c-.23,0-.46.04-.67.12-.21.08-.41.21-.57.37-.16.16-.3.35-.39.56-.09.21-.14.44-.14.66v20.57c0,.23.05.45.14.66.09.21.22.4.39.56.16.16.36.28.57.37.21.08.44.13.67.12h20.45c.23,0,.46-.04.67-.12.21-.08.41-.21.57-.37.16-.16.3-.35.39-.56s.14-.44.14-.66V1.72c0-.23-.05-.45-.14-.66-.09-.21-.22-.4-.39-.56-.16-.16-.36-.28-.57-.37-.21-.08-.44-.13-.67-.12ZM7.28,20.09h-3.62v-10.8h3.62v10.8ZM5.47,7.78c-.5,0-.98-.2-1.33-.55-.35-.35-.55-.83-.55-1.32s.2-.97.55-1.32c.35-.35.83-.55,1.33-.55.27-.03.53,0,.79.08.25.08.49.21.69.39.2.18.36.39.47.64.11.24.17.5.17.77s-.06.53-.17.77c-.11.24-.27.46-.47.64-.2.18-.43.31-.69.39-.25.08-.52.11-.79.08ZM20.34,20.09h-3.62v-5.8c0-1.45-.52-2.4-1.84-2.4-.41,0-.8.13-1.14.36-.33.23-.58.56-.72.94-.09.28-.14.58-.12.88v6h-3.62v-10.8h3.62v1.52c.33-.57.81-1.03,1.38-1.35.58-.32,1.23-.47,1.89-.45,2.41,0,4.16,1.55,4.16,4.87v6.22Z"/>
  </symbol>
</svg>