<svg width="43" height="22" viewBox="0 0 43 22" fill="none" xmlns="http://www.w3.org/2000/svg">
<g clip-path="url(#clip0_4844_1882)">
<path d="M15.7321 1H5.91071C3.1986 1 1 3.1986 1 5.91071V15.7321C1 18.4443 3.1986 20.6429 5.91071 20.6429H15.7321C18.4443 20.6429 20.6429 18.4443 20.6429 15.7321V5.91071C20.6429 3.1986 18.4443 1 15.7321 1Z" stroke="black" stroke-width="1.96429" stroke-linecap="round" stroke-linejoin="round"/>
<path d="M14.7502 10.2039C14.8714 11.0213 14.7318 11.8561 14.3512 12.5895C13.9706 13.323 13.3685 13.9178 12.6304 14.2893C11.8923 14.6608 11.0558 14.7901 10.24 14.6588C9.42416 14.5275 8.6705 14.1424 8.0862 13.5581C7.5019 12.9738 7.11672 12.2201 6.98545 11.4043C6.85417 10.5884 6.98348 9.75199 7.35499 9.01389C7.72649 8.27579 8.32128 7.67363 9.05474 7.29305C9.7882 6.91247 10.623 6.77285 11.4404 6.89406C12.2741 7.0177 13.046 7.40621 13.642 8.00222C14.238 8.59822 14.6266 9.37012 14.7502 10.2039Z" stroke="black" stroke-width="1.96429" stroke-linecap="round" stroke-linejoin="round"/>
<path d="M16.2227 5.42188H16.2327" stroke="black" stroke-width="1.96429" stroke-linecap="round" stroke-linejoin="round"/>
<path d="M41.5211 1.00014H24.4789C24.2873 0.997495 24.0971 1.03239 23.9191 1.10282C23.7411 1.17326 23.5788 1.27786 23.4414 1.41065C23.3041 1.54344 23.1944 1.70181 23.1187 1.87674C23.043 2.05166 23.0026 2.2397 23 2.43012V19.5699C23.0026 19.7603 23.043 19.9483 23.1187 20.1233C23.1944 20.2982 23.3041 20.4566 23.4414 20.5894C23.5788 20.7221 23.7411 20.8267 23.9191 20.8972C24.0971 20.9676 24.2873 21.0025 24.4789 20.9999H41.5211C41.7127 21.0025 41.9029 20.9676 42.0809 20.8972C42.2589 20.8267 42.4212 20.7221 42.5586 20.5894C42.6959 20.4566 42.8056 20.2982 42.8813 20.1233C42.957 19.9483 42.9974 19.7603 43 19.5699V2.43012C42.9974 2.2397 42.957 2.05166 42.8813 1.87674C42.8056 1.70181 42.6959 1.54344 42.5586 1.41065C42.4212 1.27786 42.2589 1.17326 42.0809 1.10282C41.9029 1.03239 41.7127 0.997495 41.5211 1.00014ZM29.0664 17.7399H26.0483V8.74003H29.0664V17.7399ZM27.5573 7.48005C27.1411 7.48005 26.7419 7.31569 26.4476 7.02314C26.1533 6.73059 25.9879 6.3338 25.9879 5.92007C25.9879 5.50634 26.1533 5.10955 26.4476 4.817C26.7419 4.52445 27.1411 4.36009 27.5573 4.36009C27.7784 4.33518 28.0022 4.35695 28.2142 4.42398C28.4261 4.491 28.6215 4.60178 28.7874 4.74905C28.9533 4.89632 29.086 5.07676 29.1769 5.27856C29.2678 5.48036 29.3148 5.69897 29.3148 5.92007C29.3148 6.14117 29.2678 6.35978 29.1769 6.56158C29.086 6.76338 28.9533 6.94382 28.7874 7.09109C28.6215 7.23836 28.4261 7.34914 28.2142 7.41617C28.0022 7.48319 27.7784 7.50496 27.5573 7.48005ZM39.9517 17.7399H36.9336V12.91C36.9336 11.7 36.501 10.91 35.4044 10.91C35.0651 10.9125 34.7346 11.0183 34.4576 11.2132C34.1806 11.4081 33.9703 11.6827 33.8551 12C33.7764 12.235 33.7423 12.4826 33.7545 12.73V17.7299H30.7364V8.73003H33.7545V10C34.0287 9.52713 34.4275 9.13755 34.9079 8.87323C35.3883 8.60892 35.9322 8.47989 36.4809 8.50003C38.493 8.50003 39.9517 9.79002 39.9517 12.56V17.7399Z" fill="black"/>
</g>
<defs>
<clipPath id="clip0_4844_1882">
<rect width="43" height="21.62" fill="white"/>
</clipPath>
</defs>
</svg>
